<svg width="20" height="23" viewBox="0 0 20 23" fill="none" xmlns="http://www.w3.org/2000/svg">
<path fill-rule="evenodd" clip-rule="evenodd" d="M8.125 2.73616C4.8902 3.56835 2.5 6.50364 2.5 9.99969V14.9993C2.5 15.4599 2.12572 15.8333 1.66754 15.8333C0.746581 15.8333 0 16.5814 0 17.5C0 18.4205 0.747522 19.1667 1.67079 19.1667H18.3292C19.252 19.1667 20 18.4186 20 17.5C20 16.5795 19.2499 15.8333 18.3325 15.8333C17.8727 15.8333 17.5 15.4628 17.5 14.9993V9.99969C17.5 6.50502 15.1103 3.56863 11.875 2.73619V1.87536C11.875 0.837187 11.0355 0 10 0C8.96657 0 8.125 0.839626 8.125 1.87536V2.73616ZM7.08333 20H12.9167C12.9167 21.6108 11.6108 22.9167 10 22.9167C8.38917 22.9167 7.08333 21.6108 7.08333 20Z" fill="#52273F"/>
</svg>
